<svg width="64" height="64" viewBox="0 0 64 64" fill="none" xmlns="http://www.w3.org/2000/svg">
  <defs>
    <linearGradient id="g" x1="10" y1="7" x2="55" y2="58" gradientUnits="userSpaceOnUse">
      <stop stop-color="#CBFAFF"/>
      <stop offset=".42" stop-color="#78E5FF"/>
      <stop offset="1" stop-color="#AA8DFF"/>
    </linearGradient>
    <linearGradient id="bg" x1="14" y1="9" x2="51" y2="55" gradientUnits="userSpaceOnUse">
      <stop stop-color="#123243"/>
      <stop offset="1" stop-color="#09151F"/>
    </linearGradient>
  </defs>
  <!-- Speech-shield silhouette -->
  <path d="M32 5C17.4 5 7.5 14.7 7.5 28.1c0 8.2 3.8 15.1 10.4 19.3l-2.1 10 10-5.4c2 .5 4 .7 6.2.7 14.6 0 24.5-9.7 24.5-23.1C56.5 14.7 46.6 5 32 5Z" fill="url(#bg)" stroke="url(#g)" stroke-width="1.7"/>
  <!-- Athena/Pallas helmet crest -->
  <path d="M18 29.2C20.8 19.6 27 14.8 36.7 14.8c4.1 0 7.4.9 10.3 2.8-4.5 1.3-7.3 3.1-9 5.6 4.5.2 8 1.2 10.8 3.2-3.9.6-7.1 2.2-9.6 4.8" stroke="url(#g)" stroke-width="2.2" stroke-linecap="round" stroke-linejoin="round"/>
  <!-- Owl-mask eyes: knowledge + guide -->
  <path d="M18.4 31.8 25.8 27l6.2 4.7-6.3 7-7.3-6.9Z" fill="#0D2635" stroke="#78E5FF" stroke-width="1.5"/>
  <path d="m45.6 31.8-7.4-4.8-6.2 4.7 6.3 7 7.3-6.9Z" fill="#0D2635" stroke="#AA8DFF" stroke-width="1.5"/>
  <circle cx="25.9" cy="32.3" r="2.05" fill="#CBFAFF"/>
  <circle cx="38.1" cy="32.3" r="2.05" fill="#CBFAFF"/>
  <!-- Beak/spear axis -->
  <path d="M32 31.2 35.1 38 32 44.8 28.9 38 32 31.2Z" fill="url(#g)"/>
  <!-- Tiny dialogue sparks -->
  <circle cx="23" cy="43.8" r="1.25" fill="#82F5C5"/>
  <circle cx="27.1" cy="45.1" r=".8" fill="#78E5FF"/>
</svg>
